<svg xmlns="http://www.w3.org/2000/svg" xmlns:xlink="http://www.w3.org/1999/xlink" version="1.1" x="0px" y="0px" viewBox="13 25 60 40" style="enable-background:new 0 0 90 90;" xml:space="preserve"><g><path d="M69.4,44.5c-5.1-7.9-11.9-12.3-19.2-12.3c-7,0-13.6,4.1-18.6,11.4L22,36.9c-0.3-0.2-0.7-0.2-1-0.1   c-0.3,0.2-0.5,0.5-0.5,0.9v14.5c0,0.4,0.2,0.7,0.5,0.9c0.1,0.1,0.3,0.1,0.5,0.1c0.2,0,0.4-0.1,0.6-0.2l9.6-6.7   c5,7.4,11.6,11.4,18.6,11.4c7.3,0,14.1-4.4,19.2-12.3C69.6,45.2,69.6,44.8,69.4,44.5z M22.4,50.3V39.7l7.7,5.3L22.4,50.3z M33.1,45   c3.6-5.4,8.1-8.9,12.9-10.2c-2.2,3-3.4,6.5-3.4,10.2c0,3.7,1.2,7.3,3.4,10.2C41.2,53.9,36.7,50.4,33.1,45z M50.2,55.8   c-0.4,0-0.8,0-1.2,0c-2.8-2.9-4.4-6.7-4.4-10.8c0-4.1,1.6-7.9,4.4-10.8c0.4,0,0.8,0,1.2,0c6.4,0,12.5,3.8,17.2,10.8   C62.7,52,56.6,55.8,50.2,55.8z"/><path d="M57.8,41.2c-0.4-0.4-1-0.4-1.4,0l-1.3,1.3l-1.3-1.3c-0.4-0.4-1-0.4-1.4,0s-0.4,1,0,1.4l1.3,1.3l-1.3,1.3   c-0.4,0.4-0.4,1,0,1.4c0.2,0.2,0.5,0.3,0.7,0.3s0.5-0.1,0.7-0.3l1.3-1.3l1.3,1.3c0.2,0.2,0.5,0.3,0.7,0.3s0.5-0.1,0.7-0.3   c0.4-0.4,0.4-1,0-1.4l-1.3-1.3l1.3-1.3C58.2,42.2,58.2,41.6,57.8,41.2z"/></g></svg>